<svg xmlns="http://www.w3.org/2000/svg" xmlns:xlink="http://www.w3.org/1999/xlink" width="40" zoomAndPan="magnify" viewBox="0 0 30 30.000001" height="40" preserveAspectRatio="xMidYMid meet" version="1.0"><defs><clipPath id="d448a1a7b7"><path d="M 0.484375 0 L 29.515625 0 L 29.515625 29.03125 L 0.484375 29.03125 Z M 0.484375 0 " clip-rule="nonzero"/></clipPath><clipPath id="6e441e7877"><rect x="0" width="30" y="0" height="30"/></clipPath></defs><g clip-path="url(#d448a1a7b7)"><path fill="#ffffff" d="M 0.484375 0 L 29.515625 0 L 29.515625 29.03125 L 0.484375 29.03125 Z M 0.484375 0 " fill-opacity="1" fill-rule="nonzero"/><path fill="#ffffff" d="M 0.484375 0 L 29.515625 0 L 29.515625 29.03125 L 0.484375 29.03125 Z M 0.484375 0 " fill-opacity="1" fill-rule="nonzero"/><g transform="matrix(1, 0, 0, 1, 0, 0.000000000000005692)"><g clip-path="url(#6e441e7877)"><path fill="#000000" d="M 12.933594 25.046875 C 13.160156 25.277344 13.46875 25.402344 13.789062 25.402344 L 24.675781 25.402344 C 25.347656 25.402344 25.886719 24.863281 25.886719 24.195312 L 25.886719 13.304688 C 25.886719 12.984375 25.761719 12.675781 25.53125 12.453125 L 15.855469 2.773438 C 15.621094 2.539062 15.308594 2.417969 15 2.417969 C 14.691406 2.417969 14.378906 2.539062 14.144531 2.773438 L 3.257812 13.660156 C 2.785156 14.132812 2.785156 14.898438 3.257812 15.371094 Z M 15 5.339844 L 23.46875 13.808594 L 23.46875 22.984375 L 14.292969 22.984375 L 5.824219 14.515625 Z M 15 5.339844 " fill-opacity="1" fill-rule="nonzero"/><path fill="#000000" d="M 17.417969 18.757812 C 17.417969 18.515625 17.464844 18.28125 17.558594 18.058594 C 17.648438 17.835938 17.78125 17.640625 17.953125 17.46875 C 18.121094 17.296875 18.320312 17.167969 18.542969 17.074219 C 18.765625 16.980469 18.996094 16.933594 19.238281 16.933594 C 19.480469 16.933594 19.710938 16.980469 19.933594 17.074219 C 20.160156 17.167969 20.355469 17.296875 20.527344 17.46875 C 20.695312 17.640625 20.828125 17.835938 20.921875 18.058594 C 21.011719 18.28125 21.058594 18.515625 21.058594 18.757812 C 21.058594 18.996094 21.011719 19.230469 20.921875 19.453125 C 20.828125 19.675781 20.695312 19.871094 20.527344 20.042969 C 20.355469 20.214844 20.160156 20.34375 19.933594 20.4375 C 19.710938 20.53125 19.480469 20.578125 19.238281 20.578125 C 18.996094 20.578125 18.765625 20.53125 18.542969 20.4375 C 18.320312 20.34375 18.121094 20.214844 17.953125 20.042969 C 17.78125 19.871094 17.648438 19.675781 17.558594 19.453125 C 17.464844 19.230469 17.417969 18.996094 17.417969 18.757812 Z M 17.417969 18.757812 " fill-opacity="1" fill-rule="nonzero"/></g></g></g></svg>